<svg width="22" height="22" viewBox="0 0 22 22" fill="none" xmlns="http://www.w3.org/2000/svg">
<path d="M6.41669 11.9167H5.50002C4.4875 11.9167 3.66669 12.7375 3.66669 13.75V16.5C3.66669 17.5125 4.4875 18.3333 5.50002 18.3333H6.41669C7.42921 18.3333 8.25002 17.5125 8.25002 16.5V13.75C8.25002 12.7375 7.42921 11.9167 6.41669 11.9167Z" fill="white" stroke="white" stroke-width="2.2" stroke-linecap="round" stroke-linejoin="round"/>
<path d="M16.5 11.9167H15.5833C14.5708 11.9167 13.75 12.7375 13.75 13.75V16.5C13.75 17.5125 14.5708 18.3333 15.5833 18.3333H16.5C17.5125 18.3333 18.3333 17.5125 18.3333 16.5V13.75C18.3333 12.7375 17.5125 11.9167 16.5 11.9167Z" fill="white" stroke="white" stroke-width="2.2" stroke-linecap="round" stroke-linejoin="round"/>
<path d="M2.91003 13.7566V11.0149C2.91003 9.07586 3.76014 7.21623 5.27333 5.84511C6.78652 4.47399 8.83884 3.7037 10.9788 3.7037C13.1188 3.7037 15.1711 4.47399 16.6843 5.84511C18.1975 7.21623 19.0476 9.07586 19.0476 11.0149V13.7566" stroke="white" stroke-width="0.8" stroke-linecap="round" stroke-linejoin="round"/>
</svg>
