<svg width="30" height="24" viewBox="0 0 30 24" fill="none" xmlns="http://www.w3.org/2000/svg">
<path d="M6 12.3883V9.71829C6 6.40829 8.35 5.04829 11.22 6.70829L13.53 8.04829L15.84 9.38829C18.71 11.0483 18.71 13.7583 15.84 15.4183L13.53 16.7583L11.22 18.0983C8.35 19.7283 6 18.3783 6 15.0583V12.3883Z" fill="#4C4C4C"/>
<path d="M18 12.3884V9.71835C18 6.40835 20.35 5.04835 23.22 6.70835L25.53 8.04835L27.84 9.38835C30.71 11.0484 30.71 13.7584 27.84 15.4184L25.53 16.7584L23.22 18.0983C20.35 19.7283 18 18.3784 18 15.0584V12.3884Z" fill="#D9D9D9"/>
</svg>
