<svg width="155" height="157" viewBox="0 0 155 157" fill="none" xmlns="http://www.w3.org/2000/svg">
<path opacity="0.0714286" d="M136.542 39.5608C139.903 41.3215 141.893 44.914 141.605 48.6983L135.646 126.882C135.313 131.255 132.031 134.832 127.705 135.539L55.826 147.283C51.8688 147.929 47.9326 146.02 45.9892 142.513L6.35436 70.974C4.41093 67.4662 4.87892 63.1149 7.52393 60.1L55.5678 5.33626C58.4599 2.03967 63.2312 1.1509 67.1145 3.18545L136.542 39.5608Z" stroke="url(#paint0_linear_188_5060)"/>
<path opacity="0.142857" d="M146.902 65.5032C149.307 68.437 149.736 72.5207 147.993 75.8907L111.974 145.53C109.959 149.426 105.54 151.436 101.28 150.395L30.5315 133.106C26.6363 132.154 23.7585 128.859 23.3395 124.871L14.7937 43.5227C14.3748 39.5347 16.5049 35.7129 20.1172 33.9716L85.7271 2.34384C89.6776 0.43947 94.418 1.48662 97.1982 4.87782L146.902 65.5032Z" stroke="url(#paint1_linear_188_5060)"/>
<path opacity="0.214286" d="M146.304 93.4318C147.373 97.0729 146.173 101 143.252 103.421L82.9 153.444C79.5241 156.242 74.6716 156.365 71.1571 153.742L12.7839 110.169C9.57013 107.77 8.20804 103.612 9.37992 99.7769L33.2828 21.5552C34.4547 17.7203 37.9081 15.0348 41.9132 14.844L114.66 11.3791C119.04 11.1705 122.994 13.9874 124.229 18.1957L146.304 93.4318Z" stroke="url(#paint2_linear_188_5060)"/>
<path opacity="0.285714" d="M134.848 118.905C134.41 122.675 131.77 125.823 128.135 126.91L53.0455 149.362C48.8459 150.618 44.3326 148.835 42.1228 145.048L5.40492 82.1171C3.38357 78.6527 3.75428 74.2917 6.33134 71.2189L58.88 8.56266C61.4571 5.48991 65.6854 4.36736 69.4464 5.75741L137.766 31.0076C141.878 32.5273 144.417 36.6647 143.91 41.0206L134.848 118.905Z" stroke="url(#paint3_linear_188_5060)"/>
<path opacity="0.357143" d="M114.356 137.874C112.479 141.174 108.818 143.041 105.045 142.62L27.1581 133.934C22.8027 133.448 19.3456 130.044 18.7908 125.696L9.56812 53.4101C9.06045 49.431 11.1057 45.5611 14.6789 43.7395L87.5158 6.6088C91.0891 4.78722 95.4205 5.40645 98.3396 8.15619L151.37 58.1096C154.56 61.1148 155.28 65.9136 153.113 69.7245L114.356 137.874Z" stroke="url(#paint4_linear_188_5060)"/>
<path opacity="0.428571" d="M88.0839 147.326C85.0664 149.63 80.9664 149.917 77.6576 148.055L9.35481 109.611C5.53562 107.462 3.6828 102.978 4.87011 98.7594L24.6114 28.6129C25.698 24.7518 29.0925 21.989 33.0937 21.709L114.639 16.004C118.64 15.7241 122.386 17.9873 123.999 21.6595L153.306 88.3746C155.069 92.3871 153.857 97.085 150.374 99.7454L88.0839 147.326Z" stroke="url(#paint5_linear_188_5060)"/>
<path opacity="0.5" d="M60.2074 145.757C56.53 146.699 52.6445 145.36 50.3263 142.353L2.46663 80.2636C-0.209562 76.7917 -0.164065 71.9398 2.57682 68.5201L48.1429 11.668C50.6511 8.53854 54.8544 7.32229 58.6466 8.6287L135.939 35.2557C139.731 36.5621 142.295 40.1097 142.345 44.1206L143.268 116.988C143.323 121.371 140.373 125.222 136.128 126.31L60.2074 145.757Z" stroke="url(#paint6_linear_188_5060)"/>
<path opacity="0.571429" d="M35.1578 133.414C31.4062 132.844 28.3538 130.094 27.3948 126.421L7.58752 50.5572C6.47979 46.3145 8.41764 41.8645 12.2775 39.7874L76.4212 5.26927C79.9523 3.36907 84.2958 3.89217 87.2756 6.57647L148.027 61.3049C151.007 63.9892 151.981 68.2564 150.461 71.9685L122.854 139.401C121.193 143.458 116.972 145.852 112.639 145.193L35.1578 133.414Z" stroke="url(#paint7_linear_188_5060)"/>
<path opacity="0.642857" d="M16.9198 112.259C13.6904 110.269 11.9555 106.546 12.507 102.791L23.9022 25.214C24.5395 20.8749 28.063 17.5351 32.4288 17.1319L104.95 10.4335C108.943 10.0648 112.737 12.2434 114.431 15.8782L148.981 90.0093C150.675 93.6441 149.905 97.9519 147.056 100.775L95.3117 152.052C92.1966 155.139 87.3747 155.692 83.6426 153.392L16.9198 112.259Z" stroke="url(#paint8_linear_188_5060)"/>
<path opacity="0.714286" d="M8.39489 85.6575C6.2001 82.563 6.05687 78.4594 8.03056 75.2193L48.817 8.26305C51.0984 4.51772 55.6471 2.82067 59.8241 4.15643L129.195 26.3406C133.014 27.562 135.655 31.0501 135.795 35.0575L138.648 116.805C138.788 120.812 136.397 124.476 132.672 125.961L65.0169 152.932C60.9432 154.556 56.2873 153.181 53.7502 149.604L8.39489 85.6575Z" stroke="url(#paint9_linear_188_5060)"/>
<path opacity="0.785714" d="M10.9379 57.8392C10.1259 54.1322 11.597 50.2981 14.6796 48.0869L78.3722 2.39804C81.9348 -0.157553 86.7839 0.0583409 90.1068 2.92045L145.3 50.4608C148.339 53.0781 149.408 57.3216 147.971 61.0656L118.673 137.428C117.237 141.172 113.604 143.61 109.596 143.521L36.784 141.9C32.4004 141.803 28.6525 138.717 27.7141 134.433L10.9379 57.8392Z" stroke="url(#paint10_linear_188_5060)"/>
<path opacity="0.857143" d="M24.1421 33.2281C24.8427 29.4971 27.6956 26.5413 31.398 25.7106L107.869 8.55311C112.146 7.59355 116.524 9.68671 118.464 13.6189L150.705 78.9595C152.48 82.5566 151.806 86.8812 149.021 89.7668L92.2324 148.602C89.4472 151.488 85.1509 152.313 81.4959 150.664L15.1024 120.707C11.1068 118.904 8.86319 114.6 9.67243 110.29L24.1421 33.2281Z" stroke="url(#paint11_linear_188_5060)"/>
<path opacity="0.928571" d="M45.9072 15.735C48.0099 12.5732 51.7924 10.9669 55.5263 11.6498L132.618 25.7508C136.929 26.5393 140.14 30.1756 140.391 34.5521L144.551 107.306C144.78 111.311 142.47 115.028 138.778 116.596L63.5303 148.553C59.8385 150.121 55.5607 149.201 52.8404 146.254L3.42182 92.7208C0.449064 89.5006 0.0652994 84.6634 2.49297 81.0131L45.9072 15.735Z" stroke="url(#paint12_linear_188_5060)"/>
<path d="M72.7741 8.13934C75.945 6.05064 80.055 6.05064 83.2259 8.13934L148.682 51.2562C152.342 53.6671 153.878 58.2689 152.399 62.3947L127.815 130.993C126.462 134.768 122.883 137.288 118.872 137.288H37.1278C33.1168 137.288 29.538 134.768 28.1848 130.993L3.60088 62.3947C2.1223 58.2689 3.65803 53.6671 7.31803 51.2562L72.7741 8.13934Z" stroke="url(#paint13_linear_188_5060)"/>
<defs>
<linearGradient id="paint0_linear_188_5060" x1="54.8082" y1="36.4558" x2="101.85" y2="121.279" gradientUnits="userSpaceOnUse">
<stop offset="0.166667" stop-color="#876CF5" stop-opacity="0"/>
<stop offset="0.520833" stop-color="#1FDBFA" stop-opacity="0.6"/>
<stop offset="1" stop-color="#876CF5" stop-opacity="0.36"/>
</linearGradient>
<linearGradient id="paint1_linear_188_5060" x1="72.8764" y1="30.6917" x2="83.0212" y2="127.165" gradientUnits="userSpaceOnUse">
<stop offset="0.166667" stop-color="#876CF5" stop-opacity="0"/>
<stop offset="0.520833" stop-color="#1FDBFA" stop-opacity="0.6"/>
<stop offset="1" stop-color="#876CF5" stop-opacity="0.36"/>
</linearGradient>
<linearGradient id="paint2_linear_188_5060" x1="91.7593" y1="32.4498" x2="63.3859" y2="125.209" gradientUnits="userSpaceOnUse">
<stop offset="0.166667" stop-color="#876CF5" stop-opacity="0"/>
<stop offset="0.520833" stop-color="#1FDBFA" stop-opacity="0.6"/>
<stop offset="1" stop-color="#876CF5" stop-opacity="0.36"/>
</linearGradient>
<linearGradient id="paint3_linear_188_5060" x1="108.454" y1="41.4497" x2="46.0951" y2="115.73" gradientUnits="userSpaceOnUse">
<stop offset="0.166667" stop-color="#876CF5" stop-opacity="0"/>
<stop offset="0.520833" stop-color="#1FDBFA" stop-opacity="0.6"/>
<stop offset="1" stop-color="#876CF5" stop-opacity="0.36"/>
</linearGradient>
<linearGradient id="paint4_linear_188_5060" x1="120.308" y1="56.2605" x2="33.9005" y2="100.265" gradientUnits="userSpaceOnUse">
<stop offset="0.166667" stop-color="#876CF5" stop-opacity="0"/>
<stop offset="0.520833" stop-color="#1FDBFA" stop-opacity="0.6"/>
<stop offset="1" stop-color="#876CF5" stop-opacity="0.36"/>
</linearGradient>
<linearGradient id="paint5_linear_188_5060" x1="125.434" y1="74.5278" x2="28.713" y2="81.2879" gradientUnits="userSpaceOnUse">
<stop offset="0.166667" stop-color="#876CF5" stop-opacity="0"/>
<stop offset="0.520833" stop-color="#1FDBFA" stop-opacity="0.6"/>
<stop offset="1" stop-color="#876CF5" stop-opacity="0.36"/>
</linearGradient>
<linearGradient id="paint6_linear_188_5060" x1="123.02" y1="93.3472" x2="31.3351" y2="61.7934" gradientUnits="userSpaceOnUse">
<stop offset="0.166667" stop-color="#876CF5" stop-opacity="0"/>
<stop offset="0.520833" stop-color="#1FDBFA" stop-opacity="0.6"/>
<stop offset="1" stop-color="#876CF5" stop-opacity="0.36"/>
</linearGradient>
<linearGradient id="paint7_linear_188_5060" x1="113.447" y1="109.727" x2="41.3617" y2="44.853" gradientUnits="userSpaceOnUse">
<stop offset="0.166667" stop-color="#876CF5" stop-opacity="0"/>
<stop offset="0.520833" stop-color="#1FDBFA" stop-opacity="0.6"/>
<stop offset="1" stop-color="#876CF5" stop-opacity="0.36"/>
</linearGradient>
<linearGradient id="paint8_linear_188_5060" x1="98.2388" y1="121.061" x2="57.2294" y2="33.1603" gradientUnits="userSpaceOnUse">
<stop offset="0.166667" stop-color="#876CF5" stop-opacity="0"/>
<stop offset="0.520833" stop-color="#1FDBFA" stop-opacity="0.6"/>
<stop offset="1" stop-color="#876CF5" stop-opacity="0.36"/>
</linearGradient>
<linearGradient id="paint9_linear_188_5060" x1="79.8127" y1="125.551" x2="76.4255" y2="28.6042" gradientUnits="userSpaceOnUse">
<stop offset="0.166667" stop-color="#876CF5" stop-opacity="0"/>
<stop offset="0.520833" stop-color="#1FDBFA" stop-opacity="0.6"/>
<stop offset="1" stop-color="#876CF5" stop-opacity="0.36"/>
</linearGradient>
<linearGradient id="paint10_linear_188_5060" x1="61.0984" y1="122.479" x2="95.8749" y2="31.9282" gradientUnits="userSpaceOnUse">
<stop offset="0.166667" stop-color="#876CF5" stop-opacity="0"/>
<stop offset="0.520833" stop-color="#1FDBFA" stop-opacity="0.6"/>
<stop offset="1" stop-color="#876CF5" stop-opacity="0.36"/>
</linearGradient>
<linearGradient id="paint11_linear_188_5060" x1="45.0714" y1="112.336" x2="112.458" y2="42.5895" gradientUnits="userSpaceOnUse">
<stop offset="0.166667" stop-color="#876CF5" stop-opacity="0"/>
<stop offset="0.520833" stop-color="#1FDBFA" stop-opacity="0.6"/>
<stop offset="1" stop-color="#876CF5" stop-opacity="0.36"/>
</linearGradient>
<linearGradient id="paint12_linear_188_5060" x1="34.2797" y1="96.7337" x2="123.543" y2="58.8626" gradientUnits="userSpaceOnUse">
<stop offset="0.166667" stop-color="#876CF5" stop-opacity="0"/>
<stop offset="0.520833" stop-color="#1FDBFA" stop-opacity="0.6"/>
<stop offset="1" stop-color="#876CF5" stop-opacity="0.36"/>
</linearGradient>
<linearGradient id="paint13_linear_188_5060" x1="30.439" y1="78.1529" x2="127.396" y2="78.1529" gradientUnits="userSpaceOnUse">
<stop offset="0.166667" stop-color="#876CF5" stop-opacity="0"/>
<stop offset="0.520833" stop-color="#1FDBFA" stop-opacity="0.6"/>
<stop offset="1" stop-color="#876CF5" stop-opacity="0.36"/>
</linearGradient>
</defs>
</svg>
