<svg width="40" height="23" viewBox="0 0 40 23" fill="none" xmlns="http://www.w3.org/2000/svg">
<g clip-path="url(#clip0_0_1)">
<path d="M0 0H24V7.66667H0V0Z" fill="#FF9933"/>
<path d="M0 7.66666H24V15.3333H0V7.66666Z" fill="white"/>
<path d="M0 15.3333H24V23H0V15.3333Z" fill="#128807"/>
<path d="M12 14.5667C13.3255 14.5667 14.4 13.1937 14.4 11.5C14.4 9.80634 13.3255 8.43335 12 8.43335C10.6746 8.43335 9.60004 9.80634 9.60004 11.5C9.60004 13.1937 10.6746 14.5667 12 14.5667Z" fill="#000088"/>
<path d="M12 14.1833C13.1598 14.1833 14.1 12.982 14.1 11.5C14.1 10.018 13.1598 8.81668 12 8.81668C10.8402 8.81668 9.90002 10.018 9.90002 11.5C9.90002 12.982 10.8402 14.1833 12 14.1833Z" fill="white"/>
<path d="M12 12.0367C12.232 12.0367 12.42 11.7964 12.42 11.5C12.42 11.2036 12.232 10.9633 12 10.9633C11.7681 10.9633 11.58 11.2036 11.58 11.5C11.58 11.7964 11.7681 12.0367 12 12.0367Z" fill="#000088"/>
<path d="M14.068 11.9881C14.1271 11.998 14.1813 11.9448 14.1891 11.8693C14.1969 11.7937 14.1553 11.7244 14.0961 11.7144C14.037 11.7045 13.9828 11.7577 13.975 11.8332C13.9672 11.9088 14.0088 11.9781 14.068 11.9881Z" fill="#000088"/>
<path d="M12 14.1833L12.072 12.5733L12 11.8067L11.928 12.5733L12 14.1833Z" fill="#000088"/>
<path d="M13.9023 12.6489C13.9594 12.6816 14.0226 12.6539 14.0434 12.5871C14.0642 12.5202 14.0347 12.4395 13.9776 12.4068C13.9204 12.3741 13.8572 12.4017 13.8364 12.4686C13.8157 12.5355 13.8451 12.6162 13.9023 12.6489Z" fill="#000088"/>
<path d="M11.4683 14.0863L11.8598 12.5682L11.9262 11.8018L11.6972 12.5094L11.4683 14.0863Z" fill="#000088"/>
<path d="M13.6042 13.2377C13.6539 13.2874 13.7217 13.2815 13.7557 13.2245C13.7896 13.1674 13.7768 13.0808 13.7271 13.031C13.6774 12.9812 13.6096 12.9871 13.5757 13.0442C13.5418 13.1012 13.5545 13.1879 13.6042 13.2377Z" fill="#000088"/>
<path d="M10.9579 13.8174L11.6475 12.4842L11.8722 11.772L11.507 12.3794L10.9579 13.8174Z" fill="#000088"/>
<path d="M13.1958 13.708C13.2342 13.7715 13.302 13.7879 13.3472 13.7445C13.3925 13.7012 13.3982 13.6145 13.3598 13.551C13.3215 13.4875 13.2537 13.4711 13.2084 13.5145C13.1631 13.5578 13.1575 13.6444 13.1958 13.708Z" fill="#000088"/>
<path d="M10.5199 13.3904L11.4601 12.3335L11.8255 11.7238L11.3487 12.1894L10.5199 13.3904Z" fill="#000088"/>
<path d="M12.6982 14.0388C12.7184 14.1057 12.7815 14.1333 12.8393 14.1005C12.8971 14.0678 12.9277 13.9871 12.9075 13.9202C12.8874 13.8534 12.8242 13.8258 12.7664 13.8585C12.7086 13.8913 12.6781 13.972 12.6982 14.0388Z" fill="#000088"/>
<path d="M10.1768 12.851L11.3056 12.1037L11.7966 11.644L11.2426 11.963L10.1768 12.851Z" fill="#000088"/>
<path d="M12.161 14.1847C12.1658 14.2569 12.2201 14.3047 12.2821 14.2914C12.3442 14.2781 12.3906 14.2087 12.3857 14.1365C12.3808 14.0643 12.3266 14.0166 12.2645 14.0299C12.2025 14.0432 12.1561 14.1125 12.161 14.1847Z" fill="#000088"/>
<path d="M9.96758 12.2065L11.2047 11.8505L11.7721 11.5675L11.1753 11.6967L9.96758 12.2065Z" fill="#000088"/>
<path d="M11.6214 14.1515C11.6118 14.2322 11.6504 14.3015 11.7077 14.3064C11.765 14.3112 11.8193 14.2498 11.8289 14.1691C11.8385 14.0885 11.7999 14.0192 11.7426 14.0143C11.6852 14.0094 11.631 14.0709 11.6214 14.1515Z" fill="#000088"/>
<path d="M9.90387 11.5313L11.1548 11.5497L11.7561 11.4688L11.1625 11.4282L9.90387 11.5313Z" fill="#000088"/>
<path d="M11.0968 13.9306C11.0734 14.0036 11.0988 14.0843 11.1534 14.1109C11.208 14.1375 11.2712 14.1 11.2945 14.027C11.3178 13.954 11.2925 13.8733 11.2379 13.8467C11.1833 13.8201 11.1201 13.8576 11.0968 13.9306Z" fill="#000088"/>
<path d="M9.97228 10.8191L11.169 11.3199L11.7674 11.4071L11.2077 11.1149L9.97228 10.8191Z" fill="#000088"/>
<path d="M10.6309 13.538C10.597 13.595 10.6098 13.6817 10.6596 13.7315C10.7093 13.7814 10.7771 13.7756 10.811 13.7186C10.8449 13.6616 10.8321 13.575 10.7823 13.5251C10.7326 13.4752 10.6648 13.481 10.6309 13.538Z" fill="#000088"/>
<path d="M10.1768 10.149L11.2426 11.037L11.7966 11.356L11.3056 10.8963L10.1768 10.149Z" fill="#000088"/>
<path d="M10.2635 13.0168C10.2185 13.0596 10.2133 13.1463 10.252 13.2103C10.2906 13.2743 10.3584 13.2915 10.4034 13.2487C10.4484 13.2059 10.4535 13.1192 10.4149 13.0552C10.3763 12.9912 10.3085 12.974 10.2635 13.0168Z" fill="#000088"/>
<path d="M10.5101 9.59519L11.3619 10.8013L11.8353 11.2905L11.4537 10.686L10.5101 9.59519Z" fill="#000088"/>
<path d="M10.0153 12.3932C9.96175 12.4195 9.93811 12.5002 9.9625 12.5735C9.98688 12.6468 10.0501 12.685 10.1036 12.6587C10.1572 12.6325 10.1808 12.5517 10.1564 12.4784C10.132 12.4051 10.0688 12.3669 10.0153 12.3932Z" fill="#000088"/>
<path d="M10.9458 9.17128L11.5233 10.6133L11.8841 11.2393L11.6396 10.5311L10.9458 9.17128Z" fill="#000088"/>
<path d="M9.90118 11.7067C9.84342 11.7135 9.80402 11.7828 9.81319 11.8615C9.82235 11.9403 9.8766 11.9986 9.93436 11.9918C9.99212 11.985 10.0315 11.9157 10.0223 11.837C10.0132 11.7582 9.95893 11.6999 9.90118 11.7067Z" fill="#000088"/>
<path d="M11.4513 8.90384L11.7199 10.4843L11.9429 11.208L11.8488 10.4452L11.4513 8.90384Z" fill="#000088"/>
<path d="M9.92793 11.0194C9.86647 11.0053 9.81222 11.0518 9.80675 11.1232C9.80129 11.1947 9.84668 11.264 9.90813 11.2781C9.96959 11.2922 10.0238 11.2457 10.0293 11.1743C10.0348 11.1028 9.98938 11.0335 9.92793 11.0194Z" fill="#000088"/>
<path d="M11.983 8.82355L11.9511 10.4173L12.0171 11.1864L12.061 10.4311L11.983 8.82355Z" fill="#000088"/>
<path d="M10.0978 10.351C10.0407 10.3184 9.97752 10.3461 9.95671 10.413C9.93589 10.48 9.96532 10.5607 10.0224 10.5933C10.0796 10.626 10.1427 10.5983 10.1635 10.5313C10.1844 10.4644 10.1549 10.3837 10.0978 10.351Z" fill="#000088"/>
<path d="M12.5322 8.91363L12.1406 10.4319L12.0735 11.1983L12.3024 10.4906L12.5322 8.91363Z" fill="#000088"/>
<path d="M10.3961 9.76277C10.3465 9.71273 10.2787 9.71822 10.2447 9.77504C10.2106 9.83186 10.2232 9.91849 10.2727 9.96853C10.3223 10.0186 10.3901 10.0131 10.4242 9.95626C10.4582 9.89944 10.4457 9.81281 10.3961 9.76277Z" fill="#000088"/>
<path d="M13.0426 9.18311L12.3529 10.5151L12.1275 11.2275L12.4925 10.621L13.0426 9.18311Z" fill="#000088"/>
<path d="M10.804 9.2932C10.7656 9.22903 10.6978 9.21162 10.6526 9.25431C10.6074 9.29701 10.6019 9.38364 10.6404 9.44781C10.6788 9.51198 10.7466 9.52939 10.7918 9.48669C10.837 9.444 10.8425 9.35737 10.804 9.2932Z" fill="#000088"/>
<path d="M13.4799 9.61117L12.5399 10.6644L12.1748 11.2746L12.6517 10.8116L13.4799 9.61117Z" fill="#000088"/>
<path d="M11.3017 8.9612C11.2816 8.89437 11.2184 8.86674 11.1606 8.89949C11.1028 8.93224 11.0723 9.01297 11.0924 9.0798C11.1125 9.14663 11.1757 9.17426 11.2335 9.1415C11.2913 9.10875 11.3219 9.02803 11.3017 8.9612Z" fill="#000088"/>
<path d="M13.8232 10.1491L12.6944 10.8963L12.2034 11.356L12.7574 11.037L13.8232 10.1491Z" fill="#000088"/>
<path d="M11.8391 8.81539C11.8342 8.74317 11.78 8.69541 11.7179 8.7087C11.6558 8.72199 11.6095 8.79132 11.6143 8.86353C11.6192 8.93575 11.6734 8.98352 11.7355 8.97022C11.7976 8.95693 11.8439 8.88761 11.8391 8.81539Z" fill="#000088"/>
<path d="M14.0324 10.7937L12.7953 11.1495L12.2279 11.4325L12.8247 11.3034L14.0324 10.7937Z" fill="#000088"/>
<path d="M12.378 8.84776C12.388 8.76671 12.3499 8.69739 12.293 8.69293C12.2361 8.68848 12.1819 8.75057 12.1719 8.83163C12.1619 8.91268 12.1999 8.98201 12.2568 8.98646C12.3137 8.99092 12.368 8.92882 12.378 8.84776Z" fill="#000088"/>
<path d="M14.0956 11.4675L12.8461 11.4521L12.2445 11.5326L12.8372 11.5711L14.0956 11.4675Z" fill="#000088"/>
<path d="M12.9024 9.06828C12.9262 8.99467 12.9016 8.91395 12.8474 8.88797C12.7933 8.862 12.7301 8.90061 12.7063 8.97421C12.6825 9.04782 12.7072 9.12854 12.7613 9.15452C12.8155 9.18049 12.8786 9.14188 12.9024 9.06828Z" fill="#000088"/>
<path d="M14.0271 12.1769L12.8319 11.6776L12.2332 11.597L12.7918 11.8906L14.0271 12.1769Z" fill="#000088"/>
<path d="M13.3629 9.45225C13.4003 9.38985 13.393 9.30322 13.3467 9.25876C13.3004 9.21429 13.2326 9.22883 13.1953 9.29123C13.158 9.35362 13.1652 9.44025 13.2115 9.48472C13.2578 9.52918 13.3256 9.51465 13.3629 9.45225Z" fill="#000088"/>
<path d="M13.8168 12.8356L12.7661 11.9531L12.2098 11.6594L12.6903 12.1246L13.8168 12.8356Z" fill="#000088"/>
<path d="M13.7304 9.97329C13.7788 9.92497 13.7895 9.83834 13.7542 9.7798C13.719 9.72125 13.6512 9.71296 13.6028 9.76127C13.5544 9.80959 13.5438 9.89622 13.579 9.95476C13.6143 10.0133 13.6821 10.0216 13.7304 9.97329Z" fill="#000088"/>
<path d="M13.4826 13.393L12.6482 12.1911L12.1721 11.7213L12.5416 12.33L13.4826 13.393Z" fill="#000088"/>
<path d="M13.98 10.5983C14.0361 10.5673 14.064 10.4865 14.0422 10.4179C14.0204 10.3494 13.9573 10.3189 13.9011 10.3499C13.845 10.3809 13.8171 10.4616 13.8389 10.5302C13.8607 10.5988 13.9238 10.6292 13.98 10.5983Z" fill="#000088"/>
<path d="M13.0471 13.8206L12.4865 12.3815L12.1231 11.7689L12.3558 12.48L13.0471 13.8206Z" fill="#000088"/>
<path d="M14.0944 11.2844C14.1546 11.2726 14.198 11.2033 14.1912 11.1295C14.1845 11.0558 14.1303 11.0055 14.0701 11.0172C14.0099 11.029 13.9665 11.0983 13.9732 11.1721C13.98 11.2458 14.0342 11.2961 14.0944 11.2844Z" fill="#000088"/>
<path d="M12.539 14.0894L12.2932 12.5114L12.0668 11.7988L12.1449 12.564L12.539 14.0894Z" fill="#000088"/>
</g>
<g opacity="0.65">
<path d="M29.8197 9.18291L34.1498 14.4369C34.3314 14.6399 34.6493 14.6399 34.8309 14.4369L39.1825 9.18291C39.4447 8.88857 39.2363 8.42236 38.842 8.42236H30.1613C29.7659 8.42236 29.5565 8.88857 29.8197 9.18291Z" fill="black"/>
</g>
<defs>
<clipPath id="clip0_0_1">
<rect width="24" height="23" rx="11.5" fill="white"/>
</clipPath>
</defs>
</svg>
