<svg width="513" height="513" viewBox="0 0 513 513" fill="none" xmlns="http://www.w3.org/2000/svg">
<path d="M176.205 448.665C193.878 448.665 208.205 434.338 208.205 416.665C208.205 398.992 193.878 384.665 176.205 384.665C158.532 384.665 144.205 398.992 144.205 416.665C144.205 434.338 158.532 448.665 176.205 448.665Z" fill="black"/>
<path d="M400.205 448.665C417.878 448.665 432.205 434.338 432.205 416.665C432.205 398.992 417.878 384.665 400.205 384.665C382.532 384.665 368.205 398.992 368.205 416.665C368.205 434.338 382.532 448.665 400.205 448.665Z" fill="black"/>
<path d="M457.005 121.445C454.757 118.696 451.926 116.481 448.715 114.962C445.505 113.444 441.997 112.659 438.445 112.665H134.095L127.965 77.8851C127.312 74.1804 125.374 70.8244 122.491 68.4067C119.609 65.9891 115.967 64.6643 112.205 64.6651H48.2053C43.9619 64.6651 39.8922 66.3508 36.8916 69.3514C33.891 72.3519 32.2053 76.4216 32.2053 80.6651C32.2053 84.9085 33.891 88.9782 36.8916 91.9788C39.8922 94.9794 43.9619 96.6651 48.2053 96.6651H98.7853L144.445 355.445C145.099 359.15 147.037 362.506 149.919 364.923C152.801 367.341 156.443 368.666 160.205 368.665H416.205C420.449 368.665 424.518 366.979 427.519 363.979C430.52 360.978 432.205 356.909 432.205 352.665C432.205 348.422 430.52 344.352 427.519 341.351C424.518 338.351 420.449 336.665 416.205 336.665H173.625L167.985 304.665H409.645C415.194 304.658 420.57 302.734 424.863 299.219C429.156 295.704 432.103 290.813 433.205 285.375L462.005 141.375C462.699 137.89 462.611 134.295 461.746 130.848C460.881 127.401 459.262 124.19 457.005 121.445Z" fill="black"/>
</svg>
